<svg width="338" height="120" viewBox="0 0 338 120" fill="none" xmlns="http://www.w3.org/2000/svg">
<rect width="338" height="120" fill="white"/>
<rect x="40" y="25" width="9" height="70" fill="#CCCCCC"/>
<rect x="18" y="51" width="9" height="55" transform="rotate(-90 18 51)" fill="#E6E6E6"/>
<path d="M122.704 62.1567C122.704 66.4048 122.313 70.2378 121.532 73.6558C120.751 77.0493 119.579 79.9424 118.017 82.335C116.454 84.7275 114.477 86.5586 112.084 87.8281C109.716 89.0977 106.933 89.7324 103.734 89.7324C100.512 89.7324 97.7041 89.0977 95.3115 87.8281C92.9189 86.5342 90.9414 84.6787 89.3789 82.2617C87.8164 79.8447 86.6445 76.9395 85.8633 73.5459C85.082 70.1523 84.6914 66.3315 84.6914 62.0835C84.6914 56.0776 85.4116 51.0361 86.8521 46.959C88.2925 42.8818 90.4287 39.8057 93.2607 37.7305C96.0928 35.6553 99.584 34.6177 103.734 34.6177C108.056 34.6177 111.608 35.7285 114.391 37.9502C117.199 40.1719 119.286 43.3457 120.653 47.4717C122.021 51.5732 122.704 56.4683 122.704 62.1567ZM95.3481 62.1567C95.3481 66.2583 95.6655 69.6885 96.3003 72.4473C96.9351 75.1816 97.875 77.2446 99.1201 78.6362C100.365 80.0034 101.903 80.687 103.734 80.687C105.59 80.687 107.128 80.0156 108.349 78.6729C109.594 77.3301 110.521 75.2915 111.132 72.5571C111.767 69.8228 112.084 66.356 112.084 62.1567C112.084 55.8823 111.388 51.2192 109.997 48.1675C108.605 45.0913 106.518 43.5532 103.734 43.5532C101.903 43.5532 100.365 44.249 99.1201 45.6406C97.875 47.0322 96.9351 49.1074 96.3003 51.8662C95.6655 54.625 95.3481 58.0552 95.3481 62.1567ZM140.648 107.018C136.107 107.018 132.592 106.017 130.102 104.015C127.611 102.013 126.366 99.1807 126.366 95.5186C126.366 93.126 127.05 91.0752 128.417 89.3662C129.809 87.6572 131.64 86.4854 133.91 85.8506C132.763 85.3623 131.811 84.6055 131.054 83.5801C130.297 82.5303 129.918 81.3218 129.918 79.9546C129.918 78.3921 130.26 77.0981 130.944 76.0728C131.652 75.0474 132.604 73.9976 133.8 72.9233C132.262 71.9224 131.029 70.3599 130.102 68.2358C129.174 66.1118 128.71 63.7803 128.71 61.2412C128.71 58.3115 129.235 55.8091 130.285 53.7339C131.359 51.6587 132.909 50.084 134.936 49.0098C136.986 47.9111 139.477 47.3618 142.406 47.3618C143.31 47.3618 144.091 47.4106 144.75 47.5083C145.434 47.5815 146.02 47.6914 146.508 47.8379C147.021 47.96 147.46 48.0942 147.826 48.2407H159.691V54.1001L154.857 55.1621C155.321 56.0654 155.651 57.0176 155.846 58.0186C156.042 59.0195 156.139 60.1182 156.139 61.3145C156.139 65.709 154.955 69.1147 152.587 71.5317C150.219 73.9487 146.862 75.1572 142.516 75.1572C141.173 75.1572 140.185 75.0474 139.55 74.8276C139.159 75.1938 138.781 75.6333 138.415 76.146C138.073 76.6587 137.902 77.3057 137.902 78.0869C137.902 78.6729 138.048 79.1733 138.341 79.5884C138.659 79.979 139.135 80.272 139.77 80.4673C140.404 80.6626 141.198 80.7603 142.15 80.7603H148.961C152.233 80.7603 154.748 81.6758 156.505 83.5068C158.263 85.3379 159.142 88.1333 159.142 91.8931C159.142 96.7515 157.567 100.487 154.418 103.099C151.293 105.711 146.703 107.018 140.648 107.018ZM141.344 99.73C143.322 99.73 144.945 99.4858 146.215 98.9976C147.484 98.5093 148.424 97.7891 149.035 96.8369C149.645 95.9092 149.95 94.7739 149.95 93.4312C149.95 92.3569 149.792 91.5391 149.474 90.9775C149.157 90.4404 148.607 90.062 147.826 89.8423C147.069 89.647 146.02 89.5493 144.677 89.5493H139.33C138.573 89.5493 137.902 89.7324 137.316 90.0986C136.73 90.4893 136.278 91.063 135.961 91.8198C135.644 92.5767 135.485 93.5532 135.485 94.7495C135.485 96.3853 136.01 97.6182 137.06 98.4482C138.109 99.3027 139.538 99.73 141.344 99.73ZM142.479 68.3823C143.725 68.3823 144.677 67.7842 145.336 66.5879C145.995 65.3916 146.325 63.6338 146.325 61.3145C146.325 58.8486 145.995 57.0298 145.336 55.8579C144.677 54.6616 143.712 54.0635 142.443 54.0635C141.173 54.0635 140.209 54.6738 139.55 55.8945C138.891 57.0908 138.561 58.8853 138.561 61.2778C138.561 63.5972 138.878 65.3672 139.513 66.5879C140.148 67.7842 141.137 68.3823 142.479 68.3823ZM177.819 47.2886C180.895 47.2886 183.495 48.0454 185.619 49.5591C187.768 51.0728 189.391 53.2212 190.49 56.0044C191.588 58.7632 192.138 62.0347 192.138 65.8188V71.312H172.582C172.631 74.9009 173.29 77.5498 174.56 79.2588C175.829 80.9434 177.77 81.7856 180.382 81.7856C182.116 81.7856 183.751 81.5659 185.29 81.1265C186.852 80.6626 188.512 79.8813 190.27 78.7827V86.9126C188.634 87.8892 186.889 88.5972 185.033 89.0366C183.178 89.5005 181.176 89.7324 179.027 89.7324C175.268 89.7324 172.204 88.8901 169.835 87.2056C167.467 85.4966 165.734 83.0796 164.635 79.9546C163.537 76.8052 162.987 73.0698 162.987 68.7485C162.987 64.1343 163.537 60.2402 164.635 57.0664C165.758 53.8682 167.418 51.439 169.616 49.7788C171.813 48.1187 174.547 47.2886 177.819 47.2886ZM178.039 54.9424C176.427 54.9424 175.146 55.6748 174.193 57.1396C173.241 58.5801 172.729 60.9482 172.655 64.2441H183.092C183.092 62.3154 182.897 60.6553 182.506 59.2637C182.116 57.8721 181.542 56.8101 180.785 56.0776C180.028 55.3208 179.113 54.9424 178.039 54.9424ZM245.678 35.46V71.3853C245.678 75.4868 245.043 78.8926 243.773 81.6025C242.504 84.3125 240.636 86.3511 238.17 87.7183C235.705 89.061 232.653 89.7324 229.015 89.7324C223.717 89.7324 219.64 88.2432 216.784 85.2646C213.952 82.2617 212.536 77.7085 212.536 71.605V35.46H222.79V71.2388C222.79 74.6323 223.327 77.0615 224.401 78.5264C225.475 79.9668 227.038 80.687 229.088 80.687C230.529 80.687 231.713 80.3818 232.641 79.7715C233.593 79.1367 234.301 78.1235 234.765 76.7319C235.253 75.3403 235.497 73.4849 235.497 71.1655V35.46H245.678ZM264.171 32.0176V56.8101C264.171 58.5435 264.147 60.2402 264.098 61.9004C264.049 63.5605 263.927 65.1963 263.732 66.8076H264.025C264.464 65.7334 264.94 64.7324 265.453 63.8047C265.99 62.8525 266.466 61.998 266.881 61.2412L274.828 47.9844H285.302L274.682 64.7568L285.851 89H275.194L267.98 72.0444L264.171 75.8164V89H254.43V32.0176H264.171ZM304.198 47.2153C308.178 47.2153 311.205 48.4482 313.28 50.9141C315.38 53.3555 316.43 57.0054 316.43 61.8638V89H309.289L307.714 83.5068H307.494C306.664 84.8984 305.773 86.0581 304.821 86.9858C303.893 87.9136 302.831 88.5972 301.635 89.0366C300.438 89.5005 299.035 89.7324 297.423 89.7324C295.153 89.7324 293.31 89.1221 291.894 87.9014C290.502 86.6807 289.489 85.0938 288.854 83.1406C288.219 81.1875 287.902 79.1123 287.902 76.915C287.902 72.6426 289.086 69.4077 291.454 67.2104C293.822 65.0132 297.191 63.8291 301.562 63.6582L306.652 63.4385V61.7905C306.652 59.5444 306.298 57.8721 305.59 56.7734C304.906 55.6504 303.771 55.0889 302.184 55.0889C301.012 55.0889 299.73 55.3208 298.339 55.7847C296.947 56.2485 295.421 56.9688 293.761 57.9453L291.051 50.6577C292.907 49.5347 294.945 48.6802 297.167 48.0942C299.389 47.5083 301.732 47.2153 304.198 47.2153ZM306.652 69.957L303.905 70.1035C301.83 70.2012 300.28 70.7871 299.254 71.8613C298.253 72.9111 297.753 74.4492 297.753 76.4756C297.753 78.3066 298.058 79.6738 298.668 80.5771C299.303 81.4805 300.219 81.9321 301.415 81.9321C302.953 81.9321 304.21 81.1875 305.187 79.6982C306.164 78.209 306.652 76.207 306.652 73.6924V69.957Z" fill="#A8A8A8"/>
</svg>
